name rise42.5664peak47.7979fall81.9185.mot
datacolumns 19
datarows 38
range 18.779929 18.841595
endheader
time	ground_force1_vx	ground_force1_vy	ground_force1_vz	ground_force1_px	ground_force1_py	ground_force1_pz	ground_force2_vx	ground_force2_vy	ground_force2_vz	ground_force2_px	ground_force2_py	ground_force2_pz	ground_torque1_x	ground_torque1_y	ground_torque1_z	ground_torque2_x	ground_torque2_y	ground_torque2_z	
18.779929	-35.557703	828.174718	51.082738	0.122627	0.000000	0.106724	0.000000	0.000000	0.000000	0.000000	0.000000	0.000000	0.000000	20.404805	0.000000	0.000000	0.000000	0.000000	
18.781590	-35.689473	828.546336	51.322421	0.121874	0.000000	0.106748	0.000000	0.000000	0.000000	0.000000	0.000000	0.000000	0.000000	20.351302	0.000000	0.000000	0.000000	0.000000	
18.783263	-35.822480	828.843782	51.551130	0.121128	0.000000	0.106772	0.000000	0.000000	0.000000	0.000000	0.000000	0.000000	0.000000	20.295214	0.000000	0.000000	0.000000	0.000000	
18.784932	-35.957349	829.064959	51.768024	0.120387	0.000000	0.106795	0.000000	0.000000	0.000000	0.000000	0.000000	0.000000	0.000000	20.236675	0.000000	0.000000	0.000000	0.000000	
18.786592	-36.094709	829.207821	51.972272	0.119653	0.000000	0.106817	0.000000	0.000000	0.000000	0.000000	0.000000	0.000000	0.000000	20.175823	0.000000	0.000000	0.000000	0.000000	
18.788263	-36.235195	829.270378	52.163056	0.118927	0.000000	0.106837	0.000000	0.000000	0.000000	0.000000	0.000000	0.000000	0.000000	20.112801	0.000000	0.000000	0.000000	0.000000	
18.789941	-36.379442	829.250694	52.339578	0.118207	0.000000	0.106857	0.000000	0.000000	0.000000	0.000000	0.000000	0.000000	0.000000	20.047756	0.000000	0.000000	0.000000	0.000000	
18.791593	-36.528089	829.146889	52.501055	0.117495	0.000000	0.106875	0.000000	0.000000	0.000000	0.000000	0.000000	0.000000	0.000000	19.980840	0.000000	0.000000	0.000000	0.000000	
18.793258	-36.681773	828.957140	52.646728	0.116790	0.000000	0.106891	0.000000	0.000000	0.000000	0.000000	0.000000	0.000000	0.000000	19.912207	0.000000	0.000000	0.000000	0.000000	
18.794926	-36.841129	828.679678	52.775864	0.116094	0.000000	0.106906	0.000000	0.000000	0.000000	0.000000	0.000000	0.000000	0.000000	19.842013	0.000000	0.000000	0.000000	0.000000	
18.796598	-37.006790	828.312793	52.887754	0.115405	0.000000	0.106919	0.000000	0.000000	0.000000	0.000000	0.000000	0.000000	0.000000	19.770420	0.000000	0.000000	0.000000	0.000000	
18.798262	-37.179383	827.854827	52.981720	0.114725	0.000000	0.106930	0.000000	0.000000	0.000000	0.000000	0.000000	0.000000	0.000000	19.697588	0.000000	0.000000	0.000000	0.000000	
18.799928	-37.359526	827.304180	53.057116	0.114054	0.000000	0.106939	0.000000	0.000000	0.000000	0.000000	0.000000	0.000000	0.000000	19.623681	0.000000	0.000000	0.000000	0.000000	
18.801592	-37.547830	826.659304	53.113328	0.113391	0.000000	0.106946	0.000000	0.000000	0.000000	0.000000	0.000000	0.000000	0.000000	19.548862	0.000000	0.000000	0.000000	0.000000	
18.803263	-37.744896	825.918707	53.149780	0.112736	0.000000	0.106951	0.000000	0.000000	0.000000	0.000000	0.000000	0.000000	0.000000	19.473296	0.000000	0.000000	0.000000	0.000000	
18.804938	-37.951312	825.080945	53.165931	0.112090	0.000000	0.106954	0.000000	0.000000	0.000000	0.000000	0.000000	0.000000	0.000000	19.397148	0.000000	0.000000	0.000000	0.000000	
18.806590	-38.167649	824.144627	53.161282	0.111452	0.000000	0.106954	-0.763439	3.769990	1.152440	0.000000	0.000000	0.000000	0.000000	19.320581	0.000000	0.000000	0.421387	0.000000	
18.808257	-38.394466	823.108411	53.135373	0.110823	0.000000	0.106952	-1.264637	7.075955	2.007999	0.000000	0.000000	0.000000	0.000000	19.243759	0.000000	0.000000	0.738453	0.000000	
18.809928	-38.632302	821.971002	53.087786	0.110201	0.000000	0.106948	-1.840411	11.042253	3.010541	0.000000	0.000000	0.000000	0.000000	19.166842	0.000000	0.000000	1.110755	0.000000	
18.811596	-38.881674	820.731150	53.018149	0.109588	0.000000	0.106941	-2.475880	15.618232	4.140099	0.000000	0.000000	0.000000	0.000000	19.089991	0.000000	0.000000	1.531113	0.000000	
18.813273	-39.143079	819.387650	52.926132	0.108983	0.000000	0.106931	-3.151719	20.722888	5.368937	0.000000	0.000000	0.000000	0.000000	19.013362	0.000000	0.000000	1.989460	0.000000	
18.814927	-39.416989	817.939339	52.811452	0.108386	0.000000	0.106918	-3.845420	26.250742	6.663416	0.347904	0.000000	-0.046490	0.000000	18.937109	0.000000	0.000000	4.612983	0.000000	
18.816595	-39.703851	816.385095	52.673871	0.107796	0.000000	0.106903	-4.532935	32.080395	7.986520	0.351804	0.000000	-0.046894	0.000000	18.861383	0.000000	0.000000	5.566907	0.000000	
18.818262	-40.004082	814.723833	52.513199	0.107214	0.000000	0.106884	-5.190492	38.084642	9.300738	0.355361	0.000000	-0.047274	0.000000	18.786330	0.000000	0.000000	6.524188	0.000000	
18.819924	-40.318071	812.954505	52.329292	0.106638	0.000000	0.106863	-5.796329	44.140710	10.570882	0.358615	0.000000	-0.047635	0.000000	18.712093	0.000000	0.000000	7.459369	0.000000	
18.821592	-40.646173	811.076098	52.122054	0.106069	0.000000	0.106839	-6.332128	50.139278	11.766491	0.361604	0.000000	-0.047981	0.000000	18.638809	0.000000	0.000000	8.349993	0.000000	
18.823262	-40.988709	809.087634	51.891437	0.105506	0.000000	0.106812	-6.784009	55.991318	12.863567	0.364357	0.000000	-0.048314	0.000000	18.566611	0.000000	0.000000	9.177955	0.000000	
18.824925	-41.345966	806.988161	51.637438	0.104949	0.000000	0.106782	-7.143022	61.632313	13.845538	0.366898	0.000000	-0.048637	0.000000	18.495624	0.000000	0.000000	9.930296	0.000000	
18.826591	-41.718190	804.776762	51.360103	0.104397	0.000000	0.106749	-7.405168	67.023801	14.703476	0.369249	0.000000	-0.048951	0.000000	18.425968	0.000000	0.000000	10.599459	0.000000	
18.828263	-42.105587	802.452545	51.059523	0.103851	0.000000	0.106712	-7.571007	72.152530	15.435637	0.371429	0.000000	-0.049259	0.000000	18.357758	0.000000	0.000000	11.183062	0.000000	
18.829926	-42.508323	800.014645	50.735837	0.103309	0.000000	0.106673	-7.644963	77.027683	16.046503	0.373452	0.000000	-0.049561	0.000000	18.291098	0.000000	0.000000	11.683271	0.000000	
18.831590	-42.926515	797.462221	50.389226	0.102771	0.000000	0.106630	-7.634427	81.676734	16.545470	0.375332	0.000000	-0.049860	0.000000	18.226088	0.000000	0.000000	12.105919	0.000000	
18.833260	-43.360238	794.794459	50.019917	0.102236	0.000000	0.106584	-7.548775	86.140522	16.945358	0.377080	0.000000	-0.050156	0.000000	18.162818	0.000000	0.000000	12.459460	0.000000	
18.834925	-43.809517	792.010565	49.628181	0.101704	0.000000	0.106535	-7.398392	90.468090	17.260905	0.378708	0.000000	-0.050449	0.000000	18.101370	0.000000	0.000000	12.753898	0.000000	
18.836594	-44.274324	789.109768	49.214329	0.101175	0.000000	0.106483	-7.193785	94.711733	17.507362	0.380223	0.000000	-0.050741	0.000000	18.041816	0.000000	0.000000	12.999765	0.000000	
18.838265	-44.754580	786.091319	48.778714	0.100648	0.000000	0.106428	-6.944829	98.922642	17.699281	0.381633	0.000000	-0.051032	0.000000	17.984220	0.000000	0.000000	13.207242	0.000000	
18.839928	-45.250154	782.954490	48.321728	0.100123	0.000000	0.106369	-6.660201	103.147353	17.849574	0.382947	0.000000	-0.051323	0.000000	17.928636	0.000000	0.000000	13.385443	0.000000	
18.841595	-45.760853	779.698575	47.843803	0.099598	0.000000	0.106308	-6.346998	107.425162	17.968848	0.384168	0.000000	-0.051614	0.000000	17.875106	0.000000	0.000000	13.541921	0.000000	
